<svg width="512" height="512" viewBox="0 0 512 512" fill="none" xmlns="http://www.w3.org/2000/svg">
<path d="M375.728 257.6H341.728C340.838 257.7 339.983 258.005 339.231 258.49C338.478 258.976 337.849 259.63 337.392 260.4C335.31 263.414 334.24 267.011 334.336 270.672V361.328C334.239 364.99 335.309 368.587 337.392 371.6C337.849 372.37 338.478 373.024 339.231 373.51C339.983 373.996 340.838 374.3 341.728 374.4H375.728C376.618 374.3 377.473 373.996 378.225 373.51C378.977 373.024 379.607 372.37 380.064 371.6C382.146 368.587 383.217 364.99 383.12 361.328V270.672C383.216 267.011 382.145 263.414 380.064 260.4C379.607 259.63 378.977 258.976 378.225 258.49C377.473 258.005 376.618 257.7 375.728 257.6Z" fill="#F8F3EF"/>
<path d="M131.648 260.4C129.565 263.413 128.495 267.011 128.592 270.672V361.328C128.495 364.99 129.565 368.587 131.648 371.6C132.107 372.372 132.739 373.027 133.494 373.513C134.249 373.999 135.107 374.303 136 374.4H170C170.89 374.3 171.745 373.996 172.497 373.51C173.249 373.024 173.879 372.37 174.336 371.6C176.419 368.587 177.489 364.99 177.392 361.328V270.672C177.488 267.011 176.417 263.414 174.336 260.4C173.879 259.63 173.249 258.976 172.497 258.49C171.745 258.005 170.89 257.7 170 257.6H136C135.107 257.697 134.249 258.001 133.494 258.487C132.739 258.973 132.107 259.628 131.648 260.4Z" fill="#F8F3EF"/>
<path d="M102.928 302.928H109.392V329.072H102.928V302.928Z" fill="#F8F3EF"/>
<path d="M402.336 302.928H409.088V329.072H402.336V302.928Z" fill="#F8F3EF"/>
<path d="M444.16 41.6001H67.8399C60.8819 41.6043 54.2101 44.3703 49.2901 49.2903C44.37 54.2103 41.6041 60.8821 41.5999 67.8401V444.16C41.6041 451.118 44.37 457.79 49.2901 462.71C54.2101 467.63 60.8819 470.396 67.8399 470.4H444.16C451.118 470.396 457.79 467.63 462.71 462.71C467.63 457.79 470.396 451.118 470.4 444.16V67.8401C470.396 60.8821 467.63 54.2103 462.71 49.2903C457.79 44.3703 451.118 41.6043 444.16 41.6001ZM428.272 338.672C428.272 341.218 427.26 343.66 425.46 345.46C423.66 347.261 421.218 348.272 418.672 348.272H402.336V361.328C402.416 369.141 400 376.776 395.44 383.12C393.213 386.293 390.268 388.896 386.846 390.717C383.424 392.538 379.62 393.526 375.744 393.6H341.728C337.852 393.526 334.048 392.538 330.626 390.717C327.203 388.896 324.259 386.293 322.032 383.12C317.471 376.776 315.055 369.141 315.136 361.328V270.672C315.055 262.859 317.471 255.224 322.032 248.88C324.259 245.707 327.203 243.104 330.626 241.283C334.048 239.462 337.852 238.474 341.728 238.4H352V225.328C353.071 198.951 343.646 173.224 325.787 153.782C307.929 134.34 283.093 122.768 256.72 121.6C230.355 122.78 205.532 134.358 187.684 153.798C169.835 173.239 160.416 198.959 161.488 225.328V238.4H169.984C173.86 238.474 177.664 239.462 181.086 241.283C184.508 243.104 187.453 245.707 189.68 248.88C194.24 255.224 196.656 262.859 196.576 270.672V361.328C196.656 369.141 194.24 376.776 189.68 383.12C187.453 386.293 184.508 388.896 181.086 390.717C177.664 392.538 173.86 393.526 169.984 393.6H136C132.124 393.527 128.319 392.54 124.897 390.719C121.474 388.898 118.53 386.294 116.304 383.12C111.743 376.776 109.327 369.141 109.408 361.328V348.272H93.4079C92.1472 348.272 90.8988 348.024 89.7341 347.541C88.5694 347.059 87.5111 346.352 86.6196 345.46C85.7282 344.569 85.0211 343.511 84.5386 342.346C84.0562 341.181 83.8079 339.933 83.8079 338.672V293.328C83.8079 290.782 84.8193 288.34 86.6196 286.54C88.42 284.74 90.8618 283.728 93.4079 283.728H109.408V270.672C109.326 262.859 111.742 255.224 116.304 248.88C118.531 245.707 121.475 243.104 124.898 241.283C128.32 239.462 132.124 238.474 136 238.4H142.304V225.328C141.236 193.871 152.677 163.272 174.121 140.232C195.566 117.192 225.267 103.588 256.72 102.4C288.184 103.572 317.901 117.168 339.36 140.21C360.818 163.252 372.268 193.86 371.2 225.328V238.4H375.76C379.636 238.474 383.44 239.462 386.862 241.283C390.284 243.104 393.229 245.707 395.456 248.88C400.017 255.224 402.433 262.859 402.352 270.672V283.728H418.704C421.25 283.728 423.692 284.74 425.492 286.54C427.292 288.34 428.304 290.782 428.304 293.328L428.272 338.672Z" fill="#F8F3EF"/>
<path d="M444.16 22.3999H67.8399C55.7911 22.4084 44.2381 27.1985 35.7183 35.7183C27.1985 44.2381 22.4084 55.7911 22.3999 67.8399V444.16C22.4084 456.209 27.1985 467.762 35.7183 476.281C44.2381 484.801 55.7911 489.591 67.8399 489.6H444.16C456.209 489.591 467.762 484.801 476.281 476.281C484.801 467.762 489.591 456.209 489.6 444.16V67.8399C489.591 55.7911 484.801 44.2381 476.281 35.7183C467.762 27.1985 456.209 22.4084 444.16 22.3999ZM470.4 444.16C470.396 451.118 467.63 457.79 462.71 462.71C457.79 467.63 451.118 470.396 444.16 470.4H67.8399C60.8819 470.396 54.2101 467.63 49.2901 462.71C44.3701 457.79 41.6041 451.118 41.5999 444.16V67.8399C41.6041 60.8819 44.3701 54.2101 49.2901 49.2901C54.2101 44.3701 60.8819 41.6041 67.8399 41.5999H444.16C451.118 41.6041 457.79 44.3701 462.71 49.2901C467.63 54.2101 470.396 60.8819 470.4 67.8399V444.16Z" fill="#FF7B15"/>
<path d="M418.672 283.728H402.336V270.672C402.417 262.859 400.001 255.224 395.44 248.88C393.213 245.707 390.268 243.104 386.846 241.283C383.424 239.462 379.62 238.474 375.744 238.4H371.2V225.328C372.268 193.86 360.818 163.252 339.36 140.21C317.901 117.168 288.184 103.572 256.72 102.4C225.264 103.584 195.559 117.186 174.111 140.226C152.663 163.267 141.22 193.868 142.288 225.328V238.4H136C132.124 238.474 128.32 239.462 124.898 241.283C121.475 243.104 118.531 245.707 116.304 248.88C111.742 255.224 109.326 262.859 109.408 270.672V283.728H93.4079C90.8618 283.728 88.42 284.739 86.6196 286.54C84.8193 288.34 83.8079 290.782 83.8079 293.328V338.672C83.8079 341.218 84.8193 343.66 86.6196 345.46C88.42 347.26 90.8618 348.272 93.4079 348.272H109.408V361.328C109.327 369.141 111.743 376.776 116.304 383.12C118.53 386.294 121.474 388.897 124.897 390.719C128.319 392.54 132.124 393.527 136 393.6H170C173.876 393.526 177.68 392.538 181.102 390.717C184.524 388.896 187.469 386.293 189.696 383.12C194.256 376.776 196.672 369.141 196.592 361.328V270.672C196.672 262.859 194.256 255.224 189.696 248.88C187.469 245.707 184.524 243.104 181.102 241.283C177.68 239.462 173.876 238.474 170 238.4H161.504V225.328C160.432 198.961 169.849 173.244 187.694 153.803C205.539 134.363 230.358 122.784 256.72 121.6C283.093 122.768 307.929 134.34 325.787 153.782C343.646 173.224 353.071 198.951 352 225.328V238.4H341.76C337.884 238.474 334.08 239.462 330.658 241.283C327.235 243.104 324.291 245.707 322.064 248.88C317.503 255.224 315.087 262.859 315.168 270.672V361.328C315.087 369.141 317.503 376.776 322.064 383.12C324.291 386.293 327.235 388.896 330.658 390.717C334.08 392.538 337.884 393.526 341.76 393.6H375.76C379.636 393.526 383.44 392.538 386.862 390.717C390.284 388.896 393.229 386.293 395.456 383.12C400.016 376.776 402.432 369.141 402.352 361.328V348.272H418.704C419.965 348.272 421.213 348.024 422.378 347.541C423.542 347.059 424.601 346.352 425.492 345.46C426.384 344.569 427.091 343.51 427.573 342.346C428.056 341.181 428.304 339.933 428.304 338.672V293.328C428.304 292.065 428.055 290.814 427.57 289.647C427.086 288.48 426.376 287.42 425.481 286.528C424.586 285.636 423.524 284.93 422.355 284.449C421.187 283.969 419.935 283.724 418.672 283.728ZM109.392 329.072H102.992V302.928H109.392V329.072ZM169.984 257.6C170.874 257.7 171.729 258.004 172.481 258.49C173.233 258.976 173.863 259.63 174.32 260.4C176.401 263.414 177.472 267.011 177.376 270.672V361.328C177.473 364.989 176.402 368.587 174.32 371.6C173.863 372.37 173.233 373.024 172.481 373.51C171.729 373.995 170.874 374.3 169.984 374.4H136C135.11 374.3 134.255 373.995 133.503 373.51C132.75 373.024 132.121 372.37 131.664 371.6C129.581 368.587 128.511 364.989 128.608 361.328V270.672C128.511 267.01 129.581 263.413 131.664 260.4C132.121 259.63 132.75 258.976 133.503 258.49C134.255 258.004 135.11 257.7 136 257.6H169.984ZM383.12 361.328C383.217 364.989 382.146 368.587 380.064 371.6C379.607 372.37 378.977 373.024 378.225 373.51C377.473 373.995 376.618 374.3 375.728 374.4H341.728C340.838 374.3 339.983 373.995 339.231 373.51C338.478 373.024 337.849 372.37 337.392 371.6C335.309 368.587 334.239 364.989 334.336 361.328V270.672C334.24 267.011 335.31 263.414 337.392 260.4C337.849 259.63 338.478 258.976 339.231 258.49C339.983 258.004 340.838 257.7 341.728 257.6H375.728C376.618 257.7 377.473 258.004 378.225 258.49C378.977 258.976 379.607 259.63 380.064 260.4C382.145 263.414 383.216 267.011 383.12 270.672V361.328ZM409.072 329.072H402.32V302.928H409.072V329.072Z" fill="#FF7B15"/>
</svg>
